<?xml version="1.0" encoding="UTF-8"?><svg id="Layer_1" xmlns="http://www.w3.org/2000/svg" viewBox="0 0 41.9 20.52"><defs><style>.cls-1{fill:none;stroke:#303030;stroke-miterlimit:10;stroke-width:3px;}.cls-2{fill:#303030;}</style></defs><path class="cls-2" d="M8.52,7.47c-.45-.75-1.74-1.32-2.94-1.32-1.44,0-2.76,.42-2.76,1.63,0,1.15,1.37,1.36,2.83,1.53,2.54,.31,5.25,.76,5.25,3.82,0,2.35-1.96,3.67-4.12,3.82v1.74h-2.21v-1.65c-1.95-.17-3.75-1.06-4.57-2.97l2.05-.87c.47,1.11,2.02,1.83,3.46,1.83,1.56,0,3.01-.54,3.01-1.89,0-1.15-1.44-1.56-3.06-1.76-2.49-.28-4.92-.71-4.92-3.6,0-2.28,2.02-3.32,4.03-3.56v-1.51h2.21v1.51c1.48,.23,2.83,.78,3.61,2.38l-1.88,.87Z"/><g><circle class="cls-1" cx="30.9" cy="6.9" r="5.4"/><path class="cls-1" d="M40.4,20.52h0c0-4.54-3.68-8.22-8.22-8.22h-2.57c-4.54,0-8.22,3.68-8.22,8.22h0"/></g></svg>