<?xml version="1.0" encoding="UTF-8"?><svg id="Layer_1" xmlns="http://www.w3.org/2000/svg" viewBox="0 0 31.4 31.4"><defs><style>.cls-1{fill:#fff;}</style></defs><path class="cls-1" d="M12.09,31.4l-.79-4.95c-.5-.18-1.02-.43-1.57-.75-.55-.31-1.03-.64-1.45-.98l-4.63,2.12L0,20.41l4.24-3.1c-.05-.24-.09-.5-.1-.8-.01-.3-.02-.57-.02-.8s0-.5,.02-.8c.01-.3,.05-.57,.1-.8L0,10.99,3.65,4.55l4.63,2.12c.42-.34,.9-.67,1.45-.98,.55-.31,1.07-.55,1.57-.71l.79-4.99h7.22l.79,4.95c.5,.18,1.03,.43,1.59,.73,.56,.3,1.04,.63,1.43,1l4.63-2.12,3.65,6.44-4.24,3.02c.05,.26,.09,.54,.1,.84,.01,.3,.02,.58,.02,.84s0,.54-.02,.82c-.01,.29-.05,.56-.1,.82l4.24,3.06-3.65,6.44-4.63-2.12c-.42,.34-.9,.67-1.43,1-.54,.33-1.07,.57-1.59,.73l-.79,4.95h-7.22Zm3.61-10.6c1.41,0,2.62-.5,3.61-1.49s1.49-2.2,1.49-3.61-.5-2.62-1.49-3.61-2.2-1.49-3.61-1.49-2.62,.5-3.61,1.49-1.49,2.2-1.49,3.61,.5,2.62,1.49,3.61,2.2,1.49,3.61,1.49Zm0-2.36c-.76,0-1.41-.27-1.94-.8-.54-.54-.8-1.18-.8-1.94s.27-1.41,.8-1.94c.54-.54,1.18-.8,1.94-.8s1.41,.27,1.94,.8c.54,.54,.8,1.18,.8,1.94s-.27,1.41-.8,1.94c-.54,.54-1.18,.8-1.94,.8Zm-1.73,10.6h3.45l.55-4.4c.86-.21,1.68-.54,2.45-.98s1.47-.98,2.1-1.61l4.16,1.81,1.57-2.83-3.69-2.71c.1-.44,.19-.88,.26-1.32s.1-.87,.1-1.32-.03-.88-.08-1.32-.14-.87-.27-1.32l3.69-2.71-1.57-2.83-4.16,1.81c-.6-.68-1.28-1.25-2.04-1.71-.76-.46-1.6-.75-2.51-.88l-.55-4.4h-3.45l-.55,4.4c-.89,.18-1.72,.5-2.49,.94-.77,.44-1.46,.99-2.06,1.65l-4.16-1.81-1.57,2.83,3.69,2.71c-.1,.44-.19,.88-.26,1.32s-.1,.87-.1,1.32,.03,.88,.1,1.32c.07,.43,.15,.87,.26,1.32l-3.69,2.71,1.57,2.83,4.16-1.81c.63,.63,1.33,1.16,2.1,1.61,.77,.44,1.59,.77,2.45,.98l.55,4.4Z"/></svg>