<?xml version="1.0" encoding="UTF-8"?><svg id="Layer_1" xmlns="http://www.w3.org/2000/svg" viewBox="0 0 78.2 44.73"><defs><style>.cls-1{fill:none;stroke-width:2px;}.cls-1,.cls-2{stroke:#00a1a0;stroke-miterlimit:10;}.cls-2{fill:#00a1a0;}</style></defs><g><g><rect class="cls-1" x="1" y="15.57" width="39.22" height="28.16" rx="2" ry="2"/><path class="cls-1" d="M39.44,34.3h.77v7.43c0,1.1-.9,2-2,2h-7.43v-.77c0-4.78,3.88-8.66,8.66-8.66Z"/><path class="cls-1" d="M30.78,15.57h7.43c1.1,0,2,.9,2,2v7.43h-.77c-4.78,0-8.66-3.88-8.66-8.66v-.77h0Z"/><path class="cls-1" d="M1,34.3h7.43c1.1,0,2,.9,2,2v7.43h-.77c-4.78,0-8.66-3.88-8.66-8.66v-.77h0Z" transform="translate(11.43 78.03) rotate(180)"/><path class="cls-1" d="M9.66,15.57h.77v7.43c0,1.1-.9,2-2,2H1v-.77c0-4.78,3.88-8.66,8.66-8.66Z" transform="translate(11.43 40.58) rotate(180)"/></g><g><path class="cls-1" d="M20.01,29.65h-.27c-1.93,0-3.49-1.56-3.49-3.49h0c0-1.93,1.56-3.49,3.49-3.49h3.74"/><path class="cls-1" d="M20.01,29.65h1.13c1.93,0,3.49,1.56,3.49,3.49h0c0,1.93-1.56,3.49-3.49,3.49h-3.74"/></g></g><path class="cls-2" d="M31.07,5.08l.07,.02c.08,.01,.19,.04,.34,.07,.28,.06,.73,.17,1.3,.33,1.02,.29,2.61,.8,4.43,1.6,3.19,1.41,7.69,4,10.99,8.34,2.07,2.73,3.46,5.86,4.13,9.33l-2.44,.52c-.55,.12-.98,.53-1.12,1.07-.14,.54,.04,1.12,.46,1.48l8.13,7c.35,.3,.82,.42,1.25,.32,.45-.09,.83-.39,1.03-.8h0l4.63-9.62c.24-.49,.18-1.07-.14-1.51-.32-.44-.85-.66-1.39-.59l-2.75,.39c-.86-2.73-1.89-5.08-3.15-7.16-1.55-2.58-3.41-4.72-5.69-6.54-4.62-3.7-11.05-6.05-19.67-7.18-.07,0-.13-.01-.19-.01-.72,0-1.34,.52-1.45,1.24-.12,.8,.4,1.53,1.22,1.68Zm19.02,5.6c2.12,1.69,3.85,3.68,5.29,6.09,1.28,2.13,2.33,4.58,3.19,7.47,.11,.37,.45,.61,.82,.61,.04,0,.08,0,.12,0l3.02-.43-4.3,8.92-7.52-6.48,2.77-.59c.45-.1,.74-.52,.67-.97-.66-4.07-2.2-7.73-4.6-10.89-3.52-4.64-8.28-7.39-11.66-8.87-.9-.4-1.75-.73-2.51-1,6.25,1.23,11.09,3.25,14.7,6.15Z"/><path class="cls-2" d="M52.11,2.74h.06c.06,.02,.15,.04,.26,.07,.21,.05,.56,.13,1,.26,.78,.22,2,.61,3.4,1.23,2.45,1.08,5.9,3.07,8.43,6.4,1.59,2.09,2.65,4.5,3.17,7.16l-1.87,.4c-.42,.09-.75,.41-.86,.82-.11,.41,.03,.86,.36,1.14l6.24,5.38c.27,.23,.63,.32,.96,.25,.34-.07,.64-.3,.79-.61h0l3.55-7.38c.18-.38,.14-.82-.11-1.16-.25-.34-.65-.51-1.07-.45l-2.11,.3c-.66-2.1-1.45-3.9-2.41-5.5-1.19-1.98-2.62-3.62-4.36-5.02-3.55-2.84-8.48-4.64-15.1-5.51-.05,0-.1,0-.15,0-.55,0-1.02,.4-1.11,.95-.1,.61,.31,1.18,.93,1.29Zm14.6,4.3c1.62,1.3,2.95,2.83,4.06,4.67,.98,1.64,1.78,3.51,2.45,5.74,.08,.28,.34,.47,.63,.47,.03,0,.06,0,.09,0l2.32-.33-3.3,6.85-5.77-4.97,2.13-.45c.34-.07,.57-.4,.51-.75-.5-3.12-1.69-5.94-3.53-8.36-2.7-3.56-6.36-5.67-8.95-6.81-.69-.3-1.34-.56-1.92-.76,4.8,.94,8.51,2.5,11.28,4.72Z"/></svg>