<?xml version="1.0" encoding="UTF-8"?><svg id="Layer_1" xmlns="http://www.w3.org/2000/svg" viewBox="0 0 24.09 24.09"><defs><style>.cls-1{fill:none;stroke:#353535;stroke-miterlimit:10;stroke-width:3px;}</style></defs><path class="cls-1" d="M18.96,22.24l2.92-2.92c.95-.95,.95-2.5,0-3.45l-1.66-1.66c-.95-.95-2.5-.95-3.45,0l-1.1,1.1h0c-2.83-1.69-5.19-4.06-6.89-6.88l-.02-.04,1.1-1.1c.95-.95,.95-2.5,0-3.45l-1.63-1.63c-.95-.95-2.5-.95-3.45,0L1.86,5.13c-.41,.41-.47,1.05-.15,1.54h0c4.14,6.23,9.49,11.58,15.72,15.72h0c.48,.32,1.13,.26,1.54-.15Z"/></svg>