<?xml version="1.0" encoding="UTF-8"?><svg id="Layer_1" xmlns="http://www.w3.org/2000/svg" viewBox="0 0 41.22 30.16"><defs><style>.cls-1{fill:none;stroke:#00a1a0;stroke-miterlimit:10;stroke-width:2px;}</style></defs><g><rect class="cls-1" x="1" y="1" width="39.22" height="28.16" rx="2" ry="2"/><path class="cls-1" d="M39.44,19.72h.77v7.43c0,1.1-.9,2-2,2h-7.43v-.77c0-4.78,3.88-8.66,8.66-8.66Z"/><path class="cls-1" d="M30.78,1h7.43c1.1,0,2,.9,2,2v7.43h-.77c-4.78,0-8.66-3.88-8.66-8.66v-.77h0Z"/><path class="cls-1" d="M1,19.73h7.43c1.1,0,2,.9,2,2v7.43h-.77c-4.78,0-8.66-3.88-8.66-8.66v-.77H1Z" transform="translate(11.43 48.88) rotate(180)"/><path class="cls-1" d="M9.66,1h.77v7.43c0,1.1-.9,2-2,2H1v-.77C1,4.88,4.88,1,9.66,1Z" transform="translate(11.43 11.43) rotate(180)"/></g><g><path class="cls-1" d="M20.01,15.08h-.27c-1.93,0-3.49-1.56-3.49-3.49h0c0-1.93,1.56-3.49,3.49-3.49h3.74"/><path class="cls-1" d="M20.01,15.08h1.13c1.93,0,3.49,1.56,3.49,3.49h0c0,1.93-1.56,3.49-3.49,3.49h-3.74"/></g></svg>