<?xml version="1.0" encoding="UTF-8"?><svg id="Layer_1" xmlns="http://www.w3.org/2000/svg" viewBox="0 0 39 34.21"><defs><style>.cls-1{fill:none;stroke:#00a1a0;stroke-miterlimit:10;stroke-width:3px;}</style></defs><path class="cls-1" d="M9.04,1.5h-3.54C3.29,1.5,1.5,3.29,1.5,5.5V22.02c0,2.21,1.79,4,4,4h6.27c1.06,0,2.08,.42,2.83,1.17l4.9,4.9,4.9-4.9c.75-.75,1.77-1.17,2.83-1.17h6.27c2.21,0,4-1.79,4-4V5.5c0-2.21-1.79-4-4-4H13.92"/><ellipse class="cls-1" cx="27.62" cy="14.4" rx=".44" ry=".45"/><ellipse class="cls-1" cx="12.09" cy="14.4" rx=".44" ry=".45"/><ellipse class="cls-1" cx="19.86" cy="14.4" rx=".44" ry=".45"/></svg>