<?xml version="1.0" encoding="UTF-8"?><svg id="Layer_1" xmlns="http://www.w3.org/2000/svg" viewBox="0 0 15.37 11.75"><defs><style>.cls-1{fill:#303030;}</style></defs><path class="cls-1" d="M6.66,11.75c-.29,0-.57-.12-.79-.34l-2.11-2.18c-.07-.07-.17-.11-.26-.11H1.92c-1.06,0-1.92-.94-1.92-2.1v-1.77c0-1.16,.86-2.1,1.92-2.1h1.58c.1,0,.19-.04,.26-.11L5.87,.85c.34-.35,.82-.44,1.25-.24,.42,.2,.7,.65,.7,1.16V10.49c0,.5-.27,.96-.7,1.16-.15,.07-.3,.1-.46,.1ZM1.92,4.82c-.21,0-.38,.19-.38,.42v1.77c0,.23,.17,.42,.38,.42h1.58c.49,0,.96,.2,1.32,.57l1.46,1.51V2.74l-1.46,1.51c-.36,.37-.83,.57-1.32,.57H1.92Z"/><g><path class="cls-1" d="M10.13,9.04c-.24,0-.48-.12-.63-.36-.24-.38-.16-.9,.19-1.17,.49-.38,.79-1,.79-1.65s-.29-1.27-.79-1.65c-.35-.27-.43-.79-.19-1.17,.24-.38,.72-.47,1.07-.2,.9,.69,1.44,1.82,1.44,3.02s-.54,2.33-1.44,3.02c-.13,.1-.29,.15-.44,.15Z"/><path class="cls-1" d="M12.44,11.73c-.22,0-.44-.1-.59-.3-.27-.36-.23-.89,.1-1.18,1.2-1.09,1.88-2.68,1.88-4.38s-.69-3.29-1.88-4.38c-.33-.3-.37-.83-.1-1.18s.76-.41,1.08-.11c1.55,1.41,2.44,3.47,2.44,5.67s-.89,4.27-2.44,5.67c-.14,.13-.32,.19-.49,.19Z"/></g></svg>